<svg id="line_Icons" height="512" viewBox="0 0 74 74" width="512" xmlns="http://www.w3.org/2000/svg" data-name="line Icons"><path d="m12.082 19.099h2v14.724h-2z"/><path d="m61.922 71.749h-48.84a1 1 0 0 1 -1-1v-10a1 1 0 0 1 1-1h1.967a2.051 2.051 0 1 0 0-4.1h-1.967a1 1 0 0 1 -1-1v-14.723h2v13.724h.967a4.051 4.051 0 1 1 0 8.1h-.967v8h47.84a3.018 3.018 0 0 0 3.015-3.015v-59.72a3.018 3.018 0 0 0 -3.015-3.015h-47.84v9h-2v-10a1 1 0 0 1 1-1h48.84a5.021 5.021 0 0 1 5.015 5.015v59.72a5.021 5.021 0 0 1 -5.015 5.014z"/><path d="m15.046 20.1h-3.928a4.051 4.051 0 0 1 0-8.1h3.928a4.051 4.051 0 0 1 0 8.1zm-3.928-6.1a2.051 2.051 0 0 0 0 4.1h3.928a2.053 2.053 0 0 0 2.054-2.047 2.053 2.053 0 0 0 -2.054-2.053z"/><path d="m15.046 40.926h-3.928a4.051 4.051 0 0 1 0-8.1h3.928a4.051 4.051 0 0 1 0 8.1zm-3.928-6.1a2.051 2.051 0 0 0 0 4.1h3.928a2.051 2.051 0 0 0 0-4.1z"/><path d="m13.082 61.752h-1.967a4.051 4.051 0 1 1 0-8.1h1.967v2h-1.967a2.051 2.051 0 1 0 0 4.1h1.967z"/><path d="m52.573 44.189a11.166 11.166 0 0 1 -5.4-1.724 31.8 31.8 0 0 1 -9.221-8.7 31.7 31.7 0 0 1 -5.523-11.41c-.854-3.85-.244-6.763 1.718-8.2l3.353-2.455a2.8 2.8 0 0 1 3.909.6l4.245 5.8a2.8 2.8 0 0 1 -.6 3.909l-2.258 1.656c-.193.141-.308.709-.106 1.624a10.471 10.471 0 0 0 1.8 3.689 10.467 10.467 0 0 0 2.977 2.822c.81.467 1.388.528 1.58.388l2.26-1.656a2.8 2.8 0 0 1 3.908.6l4.249 5.8a2.8 2.8 0 0 1 -.6 3.909l-3.346 2.449a4.873 4.873 0 0 1 -2.945.899zm-13.425-31.03a.791.791 0 0 0 -.47.154l-3.344 2.453c-1.266.928-1.611 3.172-.948 6.158a29.7 29.7 0 0 0 5.184 10.658 29.778 29.778 0 0 0 8.605 8.151c2.65 1.526 4.9 1.871 6.158.944l3.345-2.453a.793.793 0 0 0 .172-1.112l-4.249-5.8a.8.8 0 0 0 -1.113-.171l-2.259 1.659c-.54.4-1.75.892-3.761-.267a12.342 12.342 0 0 1 -3.591-3.378 12.34 12.34 0 0 1 -2.143-4.44c-.5-2.266.335-3.271.877-3.668l2.258-1.656a.795.795 0 0 0 .171-1.113l-4.249-5.794a.8.8 0 0 0 -.643-.325z"/><path d="m34.722 50.615h24.283v2h-24.283z"/><path d="m34.722 57.729h15.971v2h-15.971z"/><path d="m25.127 3h2v68h-2z"/></svg>