<svg id="Capa_1" enable-background="new 0 0 512.033 512.033" height="512" viewBox="0 0 512.033 512.033" width="512" xmlns="http://www.w3.org/2000/svg"><g><path d="m511.227 197.181c-2.155-6.634-8.055-10.921-15.031-10.921h-165.799c-3.708 0-6.969-2.369-8.115-5.896l-51.235-157.684c-2.155-6.634-8.055-10.92-15.031-10.92s-12.875 4.287-15.031 10.92l-51.235 157.685c-1.146 3.526-4.407 5.896-8.115 5.896h-77.925c-4.142 0-7.5 3.358-7.5 7.5s3.358 7.5 7.5 7.5h77.926c10.227 0 19.221-6.535 22.38-16.26l51.235-157.685c.076-.235.181-.556.765-.556s.689.321.765.556l51.234 157.684c3.16 9.726 12.154 16.261 22.381 16.261h165.799c.247 0 .584 0 .765.556s-.093.754-.292.899l-134.135 97.454c-8.273 6.011-11.708 16.584-8.549 26.31l51.235 157.685c.076.235.181.556-.292.899-.473.344-.746.146-.946 0l-134.135-97.454c-8.272-6.011-19.391-6.011-27.663 0l-134.133 97.453c-.2.145-.473.344-.946 0-.473-.343-.368-.664-.292-.899l51.235-157.685c3.16-9.726-.275-20.299-8.549-26.31l-134.134-97.454c-.199-.145-.473-.344-.292-.899.181-.556.519-.556.765-.556h55.811c4.142 0 7.5-3.358 7.5-7.5s-3.358-7.5-7.5-7.5h-55.811c-6.976 0-12.875 4.287-15.031 10.921s.098 13.57 5.741 17.67l134.135 97.454c3 2.179 4.245 6.013 3.1 9.539l-51.235 157.684c-2.156 6.634.098 13.57 5.741 17.67 5.643 4.101 12.936 4.101 18.579 0l134.135-97.455c3-2.179 7.03-2.179 10.03 0l134.135 97.455c2.821 2.05 6.055 3.075 9.29 3.075 3.234 0 6.468-1.025 9.29-3.075 5.643-4.1 7.896-11.036 5.741-17.67l-51.235-157.684c-1.146-3.527.1-7.36 3.1-9.54l134.135-97.454c5.641-4.1 7.895-11.035 5.739-17.669z"/><path d="m287.565 296.694v-.516h8.532c4.142 0 7.5-3.358 7.5-7.5s-3.358-7.5-7.5-7.5h-8.532v-.516c0-1.947-.376-3.803-1.033-5.521 5.503-4.311 9.049-11.011 9.049-18.527 0-12.976-10.557-23.532-23.532-23.532-6.19 0-11.827 2.406-16.032 6.328-4.206-3.922-9.842-6.328-16.032-6.328-12.976 0-23.532 10.556-23.532 23.532 0 7.516 3.547 14.216 9.049 18.527-.657 1.718-1.033 3.575-1.033 5.521v16.032c0 8.556 6.96 15.516 15.516 15.516h2.019l-8.259 12.388c-2.298 3.446-1.367 8.103 2.08 10.401 3.446 2.297 8.103 1.366 10.4-2.08l9.792-14.688 9.792 14.688c1.445 2.168 3.823 3.341 6.247 3.341 1.43 0 2.875-.408 4.153-1.26 3.447-2.298 4.378-6.954 2.08-10.401l-8.259-12.388h2.019c8.555-.001 15.516-6.962 15.516-15.517zm-15.516-48.613c4.705 0 8.532 3.828 8.532 8.532 0 4.705-3.828 8.532-8.532 8.532s-8.532-3.828-8.532-8.532c-.001-4.705 3.827-8.532 8.532-8.532zm-32.065 0c4.705 0 8.532 3.828 8.532 8.532 0 4.705-3.828 8.532-8.532 8.532s-8.532-3.828-8.532-8.532c0-4.705 3.828-8.532 8.532-8.532zm-.516 48.613v-16.032c0-.285.231-.516.516-.516h32.064c.285 0 .516.231.516.516v16.032c0 .285-.231.516-.516.516h-32.064c-.284 0-.516-.232-.516-.516z"/><path d="m305.823 217.402c2.251-3.477 1.258-8.121-2.219-10.372-14.174-9.178-30.63-14.03-47.587-14.03-48.336 0-87.661 39.325-87.661 87.661s39.325 87.661 87.661 87.661 87.661-39.325 87.661-87.661c0-16.696-4.713-32.936-13.63-46.965-2.222-3.495-6.857-4.529-10.353-2.306-3.496 2.222-4.529 6.857-2.307 10.353 7.385 11.62 11.289 25.077 11.289 38.918 0 40.065-32.596 72.661-72.661 72.661s-72.661-32.596-72.661-72.661c0-40.066 32.596-72.661 72.661-72.661 14.058 0 27.694 4.018 39.435 11.62 3.476 2.252 8.12 1.258 10.372-2.218z"/></g></svg>